<?xml version="1.0" encoding="utf-8"?>
<!-- Generator: Adobe Illustrator 28.2.0, SVG Export Plug-In . SVG Version: 6.00 Build 0)  -->
<svg version="1.1" id="Ebene_3" xmlns="http://www.w3.org/2000/svg" xmlns:xlink="http://www.w3.org/1999/xlink" x="0px" y="0px"
	 viewBox="0 0 181.54 20.22" style="enable-background:new 0 0 181.54 20.22;" xml:space="preserve">
<style type="text/css">
	.st0{fill:#416BE0;}
</style>
<g id="Ebene_1_00000012472962456089957600000011710651197374978452_">
	<g>
		<g>
			<path class="st0" d="M93.12,7.43c0-0.01,0.01-0.02,0.01-0.03"/>
			<line class="st0" x1="90.27" y1="4.46" x2="90.27" y2="4.47"/>
			<line class="st0" x1="90.81" y1="13.14" x2="90.81" y2="13.14"/>
			<path class="st0" d="M96.53,12.73c0.1-0.24,0.16-0.5,0.15-0.78c0-0.02,0-0.05,0-0.07c-0.03-0.79-0.51-1.46-1.19-1.77
				c0,0-0.01,0-0.01-0.01c1.22-0.04,2.28-0.74,2.81-1.76c0.04-0.08,0.08-0.15,0.11-0.23L101.68,0H88.71c-1.3,0-2.41,0.75-2.95,1.84
				l-7.42,18.37h3.35c1.34,0,2.49-0.8,3-1.95l2.58-6.39h2.69c0,0,0,0,0,0c0,0,0,0,0,0c0.5,0,0.91,0.41,0.91,0.91
				c0,0.12-0.03,0.24-0.07,0.35c0,0,0,0,0,0l-2.86,7.07h5.56L96.53,12.73z M90.27,4.47C90.27,4.47,90.27,4.47,90.27,4.47
				c0.23-0.55,0.77-0.93,1.4-0.93h0h3.02c0,0-1.57,3.88-1.57,3.89c-0.14,0.33-0.4,0.6-0.73,0.76c-0.2,0.1-0.42,0.16-0.66,0.16H88.7
				L90.27,4.47z"/>
			<polyline class="st0" points="89.97,11.88 89.97,11.88 89.97,11.88 			"/>
			<line class="st0" x1="151.72" y1="4.79" x2="151.72" y2="4.81"/>
			<path class="st0" d="M158.1,2.78c0.09-0.23,0.15-0.49,0.15-0.76c0-1.12-0.91-2.02-2.02-2.02c0,0,0,0,0,0h-12.17v0l-8.17,20.22
				h12.95c1.35,0,2.51-0.82,3.02-1.99l0.02-0.06L158.1,2.78z M142.88,16.68l5.31-13.14h2.69h0.01c0.5,0,0.91,0.41,0.91,0.91
				c0,0.12-0.02,0.24-0.07,0.35c0,0,0,0.01,0,0.01l-3.61,8.92l-0.81,2c0,0.01-0.01,0.02-0.01,0.04c-0.23,0.54-0.77,0.91-1.39,0.91h0
				h-0.34H142.88z"/>
			<path class="st0" d="M147.29,15.77c0.01-0.01,0.01-0.02,0.01-0.04"/>
			<path class="st0" d="M113.22,13.65c0.02-0.14,0.03-0.29,0.03-0.43c0-1.12-0.57-2.11-1.43-2.7c0,0-4.42-2.76-4.43-2.77
				c-0.37-0.26-0.62-0.68-0.65-1.17c0-0.03,0-0.1,0-0.11c0-0.19,0.04-0.38,0.11-0.55c0,0,0.59-1.45,0.6-1.48
				c0.24-0.52,0.76-0.89,1.38-0.89h0h3.03l-1.23,3.03h3.35c0,0,0,0,0,0s0,0,0,0c1.35,0,2.51-0.82,3.01-1.98L118.85,0H105.9
				c-1.35,0-2.51,0.82-3.02,1.99l-1.55,3.84c-0.09,0.24-0.16,0.49-0.2,0.75c-0.02,0.16-0.04,0.31-0.04,0.47
				c0,1.03,0.48,1.96,1.23,2.56c0.06,0.05,0.12,0.09,0.18,0.14c0,0,4.43,2.77,4.45,2.78c0.36,0.25,0.61,0.66,0.64,1.13
				c0,0.04,0.01,0.08,0.01,0.12c0,0,0,0,0,0c0,0.2-0.12,0.59-0.13,0.61c0,0-0.56,1.38-0.57,1.4c-0.24,0.53-0.76,0.9-1.38,0.9
				c0,0,0,0,0,0c0,0,0,0,0,0h-3.03l1.23-3.03h-3.35c-1.34,0-2.5,0.81-3,1.96l-1.86,4.61h12.95c1.34,0,2.48-0.8,3-1.95l1.55-3.83
				C113.12,14.19,113.19,13.92,113.22,13.65z"/>
			<polyline class="st0" points="105.53,16.68 105.53,16.68 105.53,16.68 			"/>
			<path class="st0" d="M126.43,0h-5.56l-8.17,20.22v0h11.31c0,0,0,0,0,0c0.2,0,0.39-0.02,0.57-0.05c1.11-0.2,2.03-0.94,2.45-1.95
				l0-0.01l0.62-1.52h-7.97L126.43,0z"/>
			<path class="st0" d="M163.46,0L163.46,0C163.46,0,163.46,0,163.46,0c-1.3,0-2.41,0.75-2.95,1.85c-0.07,0.15-0.19,0.47-0.19,0.47
				l-7.23,17.9v0h12.95h0c0,0,0,0,0,0c0.2,0,0.39-0.02,0.57-0.05c1.11-0.2,2.03-0.94,2.45-1.95l0.62-1.53l-9.6,0l1.57-3.89
				c0.23-0.53,0.77-0.91,1.39-0.91h4.71c1.35,0,2.51-0.82,3.01-1.98l0.63-1.56h-7.94l1.56-3.87c0,0,0,0,0,0
				c0.23-0.54,0.77-0.92,1.39-0.93h0h6.37c0.19,0,0.38-0.02,0.57-0.05c1.1-0.19,2.01-0.93,2.44-1.92L176.42,0v0H163.46z"/>
			<line class="st0" x1="165.01" y1="4.46" x2="165.01" y2="4.47"/>
			<path class="st0" d="M71.1,11.88h4.71c1.35,0,2.51-0.82,3.01-1.98l0.63-1.56h-7.94l1.56-3.87c0,0,0,0,0,0
				c0.23-0.54,0.77-0.92,1.39-0.93h0h6.37c0.19,0,0.38-0.02,0.57-0.05c1.1-0.19,2.01-0.93,2.44-1.92l0.04-0.11L84.48,0v0H71.52h0
				c0,0,0,0,0,0c-1.3,0-2.41,0.75-2.95,1.85C68.5,2,68.38,2.32,68.38,2.32l-7.23,17.9v0H74.1h0c0,0,0,0,0,0
				c0.2,0,0.39-0.02,0.57-0.05c1.11-0.2,2.03-0.94,2.45-1.95l0.62-1.53l-9.6,0l1.57-3.89C69.95,12.25,70.48,11.88,71.1,11.88z"/>
			<line class="st0" x1="73.08" y1="4.46" x2="73.07" y2="4.47"/>
			<path class="st0" d="M45.81,15.77c0.01-0.01,0.01-0.02,0.01-0.04"/>
			<path class="st0" d="M61.74,0c0,0-6.37,15.76-6.37,15.77c-0.23,0.54-0.77,0.91-1.39,0.91H51l5.31-13.14h-5.56
				c0,0-4.94,12.22-4.94,12.23c-0.23,0.54-0.77,0.91-1.39,0.91H41.4L48.13,0h-5.56l-8.17,20.22v0h22.52h0h0
				c1.3,0,2.42-0.76,2.96-1.86L67.3,0H61.74z"/>
			<line class="st0" x1="56.93" y1="20.22" x2="56.93" y2="20.22"/>
			<line class="st0" x1="56.93" y1="20.22" x2="56.93" y2="20.22"/>
			<path class="st0" d="M55.37,15.77c0.01-0.01,0.01-0.02,0.01-0.04"/>
			<path class="st0" d="M27.58,0c-1.3,0-2.41,0.75-2.95,1.85C24.56,2,24.44,2.32,24.44,2.32l-7.23,17.9v0h12.96h0h0
				c1.3,0,2.42-0.76,2.96-1.86L40.54,0H27.58z M28.61,15.77c-0.23,0.54-0.77,0.91-1.39,0.91H24.2l4.93-12.21c0,0,0,0,0,0
				c0.23-0.54,0.77-0.92,1.4-0.93h3.02C33.55,3.54,28.61,15.76,28.61,15.77z"/>
			<line class="st0" x1="29.13" y1="4.47" x2="29.13" y2="4.46"/>
			<line class="st0" x1="30.17" y1="20.22" x2="30.17" y2="20.22"/>
			<line class="st0" x1="30.17" y1="20.22" x2="30.17" y2="20.22"/>
			<path class="st0" d="M28.61,15.77c0.01-0.01,0.01-0.02,0.01-0.04"/>
			<path class="st0" d="M18.59,11.75L23.33,0H10.37c-1.3,0-2.41,0.75-2.95,1.85C7.35,2,7.23,2.32,7.23,2.32L0,20.22v0h3.35h0h0
				c1.35,0,2.5-0.81,3.01-1.97l0.05-0.12l1.82-4.51h7.4h0h0C16.93,13.62,18.06,12.85,18.59,11.75z M14.04,9.23
				c-0.24,0.51-0.76,0.87-1.37,0.87c0,0,0,0,0,0c0,0,0,0,0,0H9.64l2.28-5.64c0,0,0,0,0,0c0.23-0.54,0.77-0.92,1.4-0.93h0h3.02
				C16.34,3.54,14.06,9.19,14.04,9.23z"/>
			<line class="st0" x1="90.3" y1="4.46" x2="90.3" y2="4.47"/>
			<polygon class="st0" points="136.43,0 128.26,20.22 133.82,20.22 141.99,0 			"/>
		</g>
		<path class="st0" d="M180.48,1.46c0-0.31-0.22-0.63-0.72-0.63h-0.6v1.91h0.39V2.09h0.24l0.37,0.66h0.43l-0.42-0.74
			C180.37,1.91,180.48,1.72,180.48,1.46z M179.77,1.71h-0.23v-0.5h0.23c0.12,0,0.33,0.03,0.33,0.25
			C180.1,1.52,180.1,1.71,179.77,1.71z"/>
		<path class="st0" d="M179.74,0c-0.99,0-1.79,0.8-1.79,1.79c0,0.99,0.8,1.79,1.79,1.79c0.99,0,1.79-0.8,1.79-1.79
			C181.54,0.8,180.73,0,179.74,0z M179.74,3.31c-0.83,0-1.51-0.68-1.51-1.52c0-0.84,0.68-1.52,1.51-1.52c0.83,0,1.51,0.68,1.51,1.52
			C181.25,2.63,180.57,3.31,179.74,3.31z"/>
	</g>
</g>
</svg>
