<?xml version="1.0" encoding="utf-8"?>
<!-- Generator: Adobe Illustrator 28.2.0, SVG Export Plug-In . SVG Version: 6.00 Build 0)  -->
<svg version="1.1" id="Ebene_2" xmlns="http://www.w3.org/2000/svg" xmlns:xlink="http://www.w3.org/1999/xlink" x="0px" y="0px"
	 viewBox="0 0 149.55 88.81" style="enable-background:new 0 0 149.55 88.81;" xml:space="preserve">
<style type="text/css">
	.st0{fill:#B69B1D;}
	.st1{fill:#2B282A;}
</style>
<g id="Ebene_1_00000018941216910784619760000016660689035136326820_">
	<g>
		<g>
			<g>
				<path class="st0" d="M138.48,34.32l-3.26,3.32c-1.36,1.39-3.23,2.17-5.18,2.17h-23.17c-0.16,0-0.31-0.06-0.42-0.17l-5.31-5.31
					c-0.11-0.11-0.03-0.3,0.13-0.3h37.09C138.51,34.02,138.59,34.21,138.48,34.32z"/>
				<path class="st0" d="M149.5,23.12l-3.26,3.32c-1.36,1.39-3.23,2.17-5.18,2.17H95.83c-0.16,0-0.24-0.19-0.13-0.3l5.31-5.31
					c0.11-0.11,0.26-0.17,0.42-0.17h47.94C149.53,22.82,149.61,23.01,149.5,23.12z"/>
				<path class="st0" d="M54.39,45.32l-5.31,5.31c-0.11,0.11-0.26,0.17-0.42,0.17H30.32c-1.95,0-3.81-0.78-5.18-2.17l-3.26-3.32
					c-0.11-0.11-0.03-0.3,0.13-0.3h32.25C54.42,45.02,54.5,45.21,54.39,45.32z"/>
				<path class="st0" d="M49.03,39.79H19.5c-1.95,0-3.81-0.78-5.17-2.17l-3.26-3.32c-0.11-0.11-0.03-0.3,0.13-0.3h32.24
					c0.16,0,0.31,0.06,0.42,0.17l5.31,5.31C49.27,39.6,49.19,39.79,49.03,39.79z"/>
				<path class="st0" d="M127.68,45.3l-3.26,3.31c-1.36,1.39-3.23,2.17-5.17,2.17h-17.94c-0.16,0-0.31-0.06-0.42-0.17L70.87,20.6
					c-0.07-0.07-0.07-0.18,0-0.25l0,0c2.24-2.24,5.87-2.24,8.1,0l4.01,4.01c0.07,0.07,0.18,0.07,0.25,0l3.84-3.84
					c0.07-0.07,0.07-0.18,0-0.25L75.05,8.24c-0.07-0.07-0.18-0.07-0.25,0L62.77,20.26c-0.07,0.07-0.07,0.18,0,0.25L95.26,53
					c0.07,0.07,0.07,0.18,0,0.25L75.05,73.46c-0.07,0.07-0.18,0.07-0.25,0L54.59,53.25c-0.07-0.07-0.07-0.18,0-0.25l7.93-7.93
					c0.07-0.07,0.07-0.18,0-0.25L46.48,28.78c-0.11-0.11-0.26-0.17-0.42-0.17H8.49c-1.95,0-3.81-0.78-5.18-2.17l-3.26-3.32
					c-0.11-0.11-0.03-0.3,0.13-0.3h48.29c0.16,0,0.31,0.06,0.42,0.17C50.87,24.97,69.45,43.55,78.89,53c0.07,0.07,0.07,0.18,0,0.25
					l0,0c-2.19,2.19-5.75,2.19-7.94,0l-4.09-4.09c-0.07-0.07-0.18-0.07-0.25,0L62.77,53c-0.07,0.07-0.07,0.18,0,0.25L74.8,65.28
					c0.07,0.07,0.18,0.07,0.25,0l12.03-12.03c0.07-0.07,0.07-0.18,0-0.25L54.59,20.51c-0.07-0.07-0.07-0.18,0-0.25L74.8,0.05
					c0.07-0.07,0.18-0.07,0.25,0l20.21,20.21c0.07,0.07,0.07,0.18,0,0.25l-7.93,7.93c-0.07,0.07-0.07,0.18,0,0.25l16.12,16.13
					c0.11,0.11,0.26,0.17,0.42,0.17l23.69,0C127.71,45,127.79,45.19,127.68,45.3z"/>
			</g>
		</g>
		<g>
			<g>
				<path class="st0" d="M82.29,82.8v1.54c0,0.13-0.03,0.25-0.08,0.35c-0.05,0.1-0.13,0.19-0.22,0.26c-0.09,0.07-0.2,0.12-0.32,0.16
					c-0.12,0.04-0.24,0.06-0.37,0.06h-3.2c-0.13,0-0.25-0.02-0.37-0.06c-0.12-0.04-0.22-0.09-0.31-0.16
					c-0.09-0.07-0.16-0.15-0.22-0.26c-0.06-0.1-0.08-0.22-0.08-0.35V82.8c0-0.13,0.03-0.24,0.09-0.34s0.14-0.19,0.23-0.26
					c0.09-0.07,0.2-0.13,0.32-0.16c0.12-0.04,0.24-0.06,0.35-0.06h3.2c0.12,0,0.24,0.02,0.35,0.06c0.12,0.04,0.22,0.09,0.32,0.16
					c0.09,0.07,0.17,0.16,0.23,0.26C82.26,82.56,82.29,82.67,82.29,82.8z M80.89,82.81h-2.38c-0.19,0-0.33,0.04-0.41,0.12
					c-0.08,0.08-0.12,0.2-0.12,0.36v0.55c0,0.17,0.04,0.29,0.12,0.37c0.08,0.08,0.22,0.12,0.41,0.12h2.39
					c0.19,0,0.33-0.04,0.41-0.12c0.08-0.08,0.12-0.2,0.12-0.37v-0.55c0-0.15-0.04-0.27-0.12-0.36
					C81.22,82.85,81.09,82.81,80.89,82.81z"/>
				<path class="st0" d="M77.98,86.46v2.35h-0.86v-3.19h4.19c0.13,0,0.25,0.02,0.37,0.06c0.12,0.04,0.23,0.09,0.32,0.16
					c0.09,0.07,0.16,0.16,0.22,0.26c0.06,0.1,0.08,0.22,0.08,0.34v2.37h-0.86v-1.86c0-0.17-0.04-0.29-0.12-0.37
					c-0.08-0.08-0.22-0.12-0.41-0.12H77.98z"/>
			</g>
			<path class="st1" d="M44.87,86.52l-0.89,1.44c-0.01,0.02-0.03,0.03-0.05,0.03h-0.7c-0.02,0-0.04-0.01-0.05-0.03l-2.77-4.43
				c-0.02-0.04,0-0.09,0.05-0.09h1.26c0.02,0,0.04,0.01,0.05,0.03l1.76,2.8c0.02,0.04,0.08,0.04,0.1,0l0.52-0.82
				c0.02-0.04,0.08-0.04,0.1,0l0.62,1.01C44.88,86.47,44.88,86.5,44.87,86.52z M48.46,83.55l-1.68,2.71c-0.02,0.04-0.08,0.04-0.1,0
				l-1.76-2.8c-0.01-0.02-0.03-0.03-0.05-0.03h-1.26c-0.05,0-0.08,0.05-0.05,0.09l0.87,1.39l1.9,3.04c0.01,0.02,0.03,0.03,0.05,0.03
				c0.13,0,0.57,0,0.7,0c0.02,0,0.04-0.01,0.05-0.03l2.75-4.43c0.02-0.04,0-0.09-0.05-0.09h-1.26c-0.02,0-0.04,0.01-0.05,0.03
				L48.46,83.55z M51.94,84.63h-1.1c-0.04,0-0.07-0.03-0.07-0.07v-1.05c0-0.04,0.03-0.07,0.07-0.07h1.1c0.04,0,0.07,0.03,0.07,0.07
				v1.05C52.01,84.6,51.98,84.63,51.94,84.63z M50.77,87.92v-2.71c0-0.04,0.03-0.07,0.07-0.07h1.1c0.04,0,0.07,0.03,0.07,0.07v2.71
				c0,0.04-0.03,0.07-0.07,0.07h-1.1C50.8,87.99,50.77,87.96,50.77,87.92z M52.8,83.44l3.9,0c0.17,0,0.45,0.04,0.61,0.09
				c0.16,0.05,0.3,0.13,0.42,0.22c0.13,0.1,0.23,0.22,0.31,0.37c0.08,0.15,0.12,0.31,0.12,0.49v3.31c0,0.04-0.03,0.07-0.07,0.07
				h-1.1c-0.04,0-0.07-0.03-0.07-0.07v-2.59c0-0.24-0.06-0.42-0.17-0.53c-0.11-0.11-0.31-0.17-0.59-0.17l-3.36-0.02
				c-0.04,0-0.08-0.04-0.08-0.08l-0.01-1.02C52.72,83.47,52.75,83.44,52.8,83.44z M40.19,84.68h-7.57c-0.02,0-0.04-0.02-0.04-0.04
				c0-0.17,0.05-0.33,0.12-0.47c0.08-0.15,0.19-0.28,0.32-0.39c0.13-0.11,0.29-0.19,0.46-0.25c0.17-0.06,0.36-0.09,0.55-0.09h5.37
				c0.02,0,0.06,0.01,0.07,0.04l0.75,1.16C40.22,84.67,40.21,84.68,40.19,84.68z M38.95,86.5c0-0.06-0.05-0.11-0.11-0.11h-4.91
				c-0.17,0-0.34-0.03-0.5-0.08c-0.16-0.05-0.3-0.12-0.43-0.22s-0.22-0.21-0.3-0.34c-0.07-0.13-0.11-0.27-0.11-0.43v-0.08
				c0-0.02,0.02-0.04,0.04-0.04h6.27c0.17,0,0.34,0.03,0.5,0.08c0.16,0.05,0.3,0.13,0.43,0.22c0.12,0.09,0.22,0.21,0.3,0.34
				c0.07,0.13,0.11,0.28,0.11,0.43v0.67c0,0.19-0.04,0.36-0.12,0.51c-0.08,0.15-0.19,0.28-0.32,0.38c-0.13,0.1-0.28,0.18-0.45,0.23
				c-0.19,0.06-0.4,0.09-0.6,0.09h-6.12c-0.02,0-0.04-0.02-0.04-0.04v-1.16c0-0.02,0.02-0.04,0.04-0.04h6.22
				c0.06,0,0.11-0.05,0.11-0.11V86.5z M74.84,84.72h-7.31c-0.02,0-0.03-0.02-0.03-0.03c0-0.17,0.04-0.32,0.12-0.46
				c0.08-0.15,0.18-0.27,0.31-0.38c0.13-0.1,0.28-0.18,0.45-0.24c0.17-0.06,0.34-0.08,0.53-0.08h5.19c0.02,0,0.06,0.01,0.07,0.03
				l0.72,1.12C74.88,84.71,74.86,84.72,74.84,84.72z M73.64,86.48c0-0.06-0.05-0.11-0.11-0.11h-4.75c-0.17,0-0.33-0.02-0.49-0.07
				c-0.16-0.05-0.29-0.12-0.41-0.21c-0.12-0.09-0.21-0.2-0.29-0.33s-0.11-0.26-0.11-0.41v-0.08c0-0.02,0.02-0.03,0.03-0.03h6.05
				c0.17,0,0.33,0.03,0.49,0.08c0.16,0.05,0.29,0.12,0.41,0.21c0.12,0.09,0.21,0.2,0.29,0.33c0.07,0.13,0.11,0.27,0.11,0.42v0.64
				c0,0.19-0.04,0.35-0.12,0.5c-0.08,0.14-0.18,0.27-0.31,0.36c-0.13,0.09-0.27,0.17-0.43,0.22c-0.19,0.06-0.38,0.09-0.58,0.09
				h-5.91c-0.02,0-0.03-0.02-0.03-0.03v-1.12c0-0.02,0.02-0.03,0.03-0.03h6.01c0.06,0,0.11-0.05,0.11-0.11V86.48z M66.6,83.53h-5.91
				c-0.17,0-0.34,0.03-0.5,0.08c-0.17,0.06-0.32,0.13-0.45,0.23c-0.13,0.1-0.24,0.23-0.33,0.37c-0.11,0.19-0.12,0.43-0.13,0.49
				c0,0.01,0.01,0.01,0.01,0.01h2.79v0h4.51c0.04,0,0.07-0.03,0.07-0.07V83.6C66.67,83.56,66.63,83.53,66.6,83.53z M66.24,85.55
				c-0.13-0.09-0.27-0.17-0.43-0.22c-0.19-0.06-0.38-0.09-0.58-0.09h-1.7c-0.03,0-0.06,0.03-0.06,0.06v1.01
				c0,0.03,0.03,0.06,0.06,0.06h1.77c0.06,0,0.11,0.05,0.11,0.11v0.28c0,0.06-0.05,0.11-0.11,0.11h-4.03
				c-0.28,0-0.47-0.06-0.59-0.17c-0.11-0.11-0.17-0.29-0.17-0.53l0-0.94c0-0.01-0.01-0.02-0.02-0.02H59.3
				c-0.01,0-0.02,0.01-0.02,0.02v1.66c0,0.19,0.04,0.35,0.12,0.5c0.08,0.14,0.18,0.27,0.31,0.36c0.13,0.1,0.28,0.18,0.45,0.23
				c0.17,0.06,0.34,0.08,0.53,0.08h4.57c0.21,0,0.4-0.02,0.57-0.07c0.17-0.05,0.32-0.12,0.44-0.21c0.12-0.09,0.22-0.2,0.29-0.34
				c0.07-0.14,0.1-0.29,0.1-0.46v-0.59c0-0.18-0.04-0.34-0.12-0.49C66.47,85.77,66.37,85.64,66.24,85.55z"/>
			<path class="st1" d="M88.38,86.52l-0.89,1.44c-0.01,0.02-0.03,0.03-0.05,0.03h-0.7c-0.02,0-0.04-0.01-0.05-0.03l-2.77-4.43
				c-0.02-0.04,0-0.09,0.05-0.09h1.26c0.02,0,0.04,0.01,0.05,0.03l1.76,2.8c0.02,0.04,0.08,0.04,0.1,0l0.52-0.82
				c0.02-0.04,0.08-0.04,0.1,0l0.62,1.01C88.39,86.47,88.39,86.5,88.38,86.52z M91.97,83.55l-1.68,2.71c-0.02,0.04-0.08,0.04-0.1,0
				l-1.76-2.8c-0.01-0.02-0.03-0.03-0.05-0.03h-1.26c-0.05,0-0.08,0.05-0.05,0.09l0.87,1.39l1.9,3.04c0.01,0.02,0.03,0.03,0.05,0.03
				c0.13,0,0.57,0,0.7,0c0.02,0,0.04-0.01,0.05-0.03l2.75-4.43c0.02-0.04,0-0.09-0.05-0.09h-1.26c-0.02,0-0.04,0.01-0.05,0.03
				L91.97,83.55z M95.45,84.63h-1.1c-0.04,0-0.07-0.03-0.07-0.07v-1.05c0-0.04,0.03-0.07,0.07-0.07h1.1c0.04,0,0.07,0.03,0.07,0.07
				v1.05C95.52,84.6,95.49,84.63,95.45,84.63z M94.28,87.92v-2.71c0-0.04,0.03-0.07,0.07-0.07h1.1c0.04,0,0.07,0.03,0.07,0.07v2.71
				c0,0.04-0.03,0.07-0.07,0.07h-1.1C94.31,87.99,94.28,87.96,94.28,87.92z M96.31,83.44l3.9,0c0.17,0,0.45,0.04,0.61,0.09
				c0.16,0.05,0.3,0.13,0.42,0.22c0.13,0.1,0.23,0.22,0.31,0.37c0.08,0.15,0.12,0.31,0.12,0.49v3.31c0,0.04-0.03,0.07-0.07,0.07
				h-1.1c-0.04,0-0.07-0.03-0.07-0.07v-2.59c0-0.24-0.06-0.42-0.17-0.53s-0.31-0.17-0.59-0.17l-3.36-0.02
				c-0.04,0-0.08-0.04-0.08-0.08l-0.01-1.02C96.23,83.47,96.27,83.44,96.31,83.44z M118.35,84.72h-7.31c-0.02,0-0.03-0.02-0.03-0.03
				c0-0.17,0.04-0.32,0.12-0.46c0.08-0.15,0.18-0.27,0.31-0.38c0.13-0.1,0.28-0.18,0.45-0.24c0.17-0.06,0.34-0.08,0.53-0.08h5.19
				c0.02,0,0.06,0.01,0.07,0.03l0.72,1.12C118.39,84.71,118.37,84.72,118.35,84.72z M117.16,86.48c0-0.06-0.05-0.11-0.11-0.11h-4.75
				c-0.17,0-0.33-0.02-0.49-0.07c-0.16-0.05-0.29-0.12-0.41-0.21s-0.21-0.2-0.29-0.33c-0.07-0.12-0.11-0.26-0.11-0.41v-0.08
				c0-0.02,0.02-0.03,0.03-0.03h6.05c0.17,0,0.33,0.03,0.49,0.08c0.16,0.05,0.29,0.12,0.41,0.21c0.12,0.09,0.21,0.2,0.29,0.33
				c0.07,0.13,0.11,0.27,0.11,0.42v0.64c0,0.19-0.04,0.35-0.12,0.5c-0.08,0.14-0.18,0.27-0.31,0.36c-0.13,0.09-0.27,0.17-0.43,0.22
				c-0.19,0.06-0.38,0.09-0.58,0.09h-5.91c-0.02,0-0.03-0.02-0.03-0.03v-1.12c0-0.02,0.02-0.03,0.03-0.03h6.01
				c0.06,0,0.11-0.05,0.11-0.11V86.48z M110.11,83.53h-5.91c-0.17,0-0.34,0.03-0.5,0.08c-0.17,0.06-0.32,0.13-0.45,0.23
				c-0.13,0.1-0.24,0.23-0.33,0.37c-0.11,0.19-0.12,0.43-0.13,0.49c0,0.01,0.01,0.01,0.01,0.01h2.79v0h4.51
				c0.04,0,0.07-0.03,0.07-0.07V83.6C110.18,83.56,110.15,83.53,110.11,83.53z M109.75,85.55c-0.13-0.09-0.27-0.17-0.43-0.22
				c-0.19-0.06-0.38-0.09-0.58-0.09h-1.7c-0.03,0-0.06,0.03-0.06,0.06v1.01c0,0.03,0.03,0.06,0.06,0.06h1.77
				c0.06,0,0.11,0.05,0.11,0.11v0.28c0,0.06-0.05,0.11-0.11,0.11h-4.03c-0.28,0-0.47-0.06-0.59-0.17c-0.11-0.11-0.17-0.29-0.17-0.53
				l0-0.94c0-0.01-0.01-0.02-0.02-0.02h-1.19c-0.01,0-0.02,0.01-0.02,0.02v1.66c0,0.19,0.04,0.35,0.12,0.5
				c0.08,0.14,0.18,0.27,0.31,0.36c0.13,0.1,0.28,0.18,0.45,0.23c0.17,0.06,0.34,0.08,0.53,0.08h4.57c0.21,0,0.4-0.02,0.57-0.07
				c0.17-0.05,0.32-0.12,0.44-0.21c0.12-0.09,0.22-0.2,0.29-0.34c0.07-0.14,0.1-0.29,0.1-0.46v-0.59c0-0.18-0.04-0.34-0.12-0.49
				C109.98,85.77,109.88,85.64,109.75,85.55z"/>
		</g>
	</g>
</g>
</svg>
